<?xml version="1.0" standalone="no"?><!DOCTYPE svg PUBLIC "-//W3C//DTD SVG 1.1//EN" "http://www.w3.org/Graphics/SVG/1.1/DTD/svg11.dtd"><svg t="1757416075097" class="icon" viewBox="0 0 1024 1024" version="1.1" xmlns="http://www.w3.org/2000/svg" p-id="1478" width="48" height="48" xmlns:xlink="http://www.w3.org/1999/xlink"><path d="M827.16444445 57.00266667c9.216 0 18.09066667 1.82044445 26.39644444 5.46133333 13.312 5.23377778 23.77955555 13.42577778 31.63022222 24.68977778s11.71911111 23.66577778 11.71911111 37.31911111v775.39555556c0 13.65333333-3.86844445 26.05511111-11.71911111 37.3191111-7.85066667 11.264-18.31822222 19.456-31.63022222 24.68977778-7.62311111 3.18577778-16.49777778 4.77866667-26.39644444 4.77866667-19.22844445 0-35.95377778-6.48533333-49.94844445-19.22844445l-265.10222222-255.20355555-265.32977778 254.976C232.33422222 960.512 215.60888889 967.11111111 196.83555555 967.11111111c-9.216 0-18.09066667-1.82044445-26.39644444-5.46133333-13.312-5.23377778-23.77955555-13.42577778-31.63022222-24.68977778-7.85066667-11.264-11.71911111-23.66577778-11.71911111-37.31911111V124.35911111c0-13.65333333 3.86844445-26.05511111 11.71911111-37.31911111 7.85066667-11.264 18.31822222-19.456 31.63022222-24.68977778 8.41955555-3.64088889 17.18044445-5.46133333 26.39644444-5.46133333h630.3288889v0.11377778z" fill="#3770E0" p-id="1479"></path></svg>